{
  "accessors": [
    {
      "bufferView": 2,
      "componentType": 5126,
      "count": 23960,
      "max": [
        0.8459519743919373,
        0.8459519743919373,
        0.8459519743919373
      ],
      "min": [
        -0.8459519743919373,
        -0.8459519743919373,
        -0.8459519743919373
      ],
      "type": "VEC3"
    },
    {
      "bufferView": 2,
      "byteOffset": 287520,
      "componentType": 5126,
      "count": 23960,
      "max": [
        0.9960860013961792,
        0.9960860013961792,
        0.9960860013961792
      ],
      "min": [
        -0.9960860013961792,
        -0.9960860013961792,
        -0.9960860013961792
      ],
      "type": "VEC3"
    },
    {
      "bufferView": 1,
      "componentType": 5126,
      "count": 23960,
      "max": [
        0.9665820002555847,
        0.9969390034675598
      ],
      "min": [
        0.00029200001154094934,
        0.0024250000715255737
      ],
      "type": "VEC2"
    },
    {
      "bufferView": 0,
      "componentType": 5125,
      "count": 133632,
      "type": "SCALAR"
    },
    {
      "bufferView": 2,
      "byteOffset": 575040,
      "componentType": 5126,
      "count": 8673,
      "max": [
        0.8717100024223328,
        0.7082099914550781,
        0.7082099914550781
      ],
      "min": [
        -0.8717100024223328,
        -0.8717100024223328,
        -0.7082099914550781
      ],
      "type": "VEC3"
    },
    {
      "bufferView": 2,
      "byteOffset": 679116,
      "componentType": 5126,
      "count": 8673,
      "max": [
        1.0,
        0.9952652454376221,
        0.9984973669052124
      ],
      "min": [
        -1.0,
        -1.0,
        -0.9984973669052124
      ],
      "type": "VEC3"
    },
    {
      "bufferView": 1,
      "byteOffset": 191680,
      "componentType": 5126,
      "count": 8673,
      "max": [
        0.9982370138168335,
        0.78050297498703
      ],
      "min": [
        0.0028510000556707382,
        0.001766999950632453
      ],
      "type": "VEC2"
    },
    {
      "bufferView": 0,
      "byteOffset": 534528,
      "componentType": 5125,
      "count": 48384,
      "type": "SCALAR"
    },
    {
      "bufferView": 2,
      "byteOffset": 783192,
      "componentType": 5126,
      "count": 8673,
      "max": [
        0.7082099914550781,
        0.8717100024223328,
        0.8717100024223328
      ],
      "min": [
        -0.7082099914550781,
        -0.3005490005016327,
        -0.8717100024223328
      ],
      "type": "VEC3"
    },
    {
      "bufferView": 2,
      "byteOffset": 887268,
      "componentType": 5126,
      "count": 8673,
      "max": [
        0.9984973669052124,
        1.0,
        1.0
      ],
      "min": [
        -0.9984973669052124,
        -0.9984973669052124,
        -1.0
      ],
      "type": "VEC3"
    },
    {
      "bufferView": 1,
      "byteOffset": 261064,
      "componentType": 5126,
      "count": 8673,
      "max": [
        0.78050297498703,
        0.8649479746818542
      ],
      "min": [
        0.001766999950632453,
        0.21853800117969513
      ],
      "type": "VEC2"
    },
    {
      "bufferView": 0,
      "byteOffset": 728064,
      "componentType": 5125,
      "count": 48384,
      "type": "SCALAR"
    }
  ],
  "asset": {
    "extras": {
      "author": "Armellino Raffaele (https://sketchfab.com/armellino.raffaele)",
      "license": "CC-BY-4.0 (http://creativecommons.org/licenses/by/4.0/)",
      "source": "https://sketchfab.com/3d-models/adidas-teamgeist-ball-germany-2006-match-ball-570b82c4391c49ddb1e471e6e55de9f4",
      "title": "Adidas Teamgeist Ball (Germany 2006 Match Ball)"
    },
    "generator": "Sketchfab-11.21.0",
    "version": "2.0"
  },
  "bufferViews": [
    {
      "buffer": 0,
      "byteLength": 921600,
      "name": "floatBufferViews",
      "target": 34963
    },
    {
      "buffer": 0,
      "byteLength": 330448,
      "byteOffset": 921600,
      "byteStride": 8,
      "name": "floatBufferViews",
      "target": 34962
    },
    {
      "buffer": 0,
      "byteLength": 991344,
      "byteOffset": 1252048,
      "byteStride": 12,
      "name": "floatBufferViews",
      "target": 34962
    }
  ],
  "buffers": [
    {
      "byteLength": 2243392,
      "uri": "scene.bin"
    }
  ],
  "extensionsUsed": [
    "KHR_materials_clearcoat"
  ],
  "images": [
    {
      "uri": "textures/Ball_Ovals_baseColor.png"
    },
    {
      "uri": "textures/Ball_Ovals_metallicRoughness.png"
    },
    {
      "uri": "textures/Ball_Triangles_baseColor.png"
    },
    {
      "uri": "textures/Ball_Triangles_metallicRoughness.png"
    }
  ],
  "materials": [
    {
      "doubleSided": true,
      "extensions": {
        "KHR_materials_clearcoat": {
          "clearcoatFactor": 1.0,
          "clearcoatRoughnessFactor": 0.1780353410602318
        }
      },
      "name": "Ball_Ovals",
      "pbrMetallicRoughness": {
        "baseColorTexture": {
          "index": 0
        },
        "metallicRoughnessTexture": {
          "index": 1
        },
        "roughnessFactor": 0.34220026600798026
      }
    },
    {
      "doubleSided": true,
      "extensions": {
        "KHR_materials_clearcoat": {
          "clearcoatFactor": 1.0,
          "clearcoatRoughnessFactor": 0.08075242257267717
        }
      },
      "name": "Ball_Triangles",
      "pbrMetallicRoughness": {
        "baseColorTexture": {
          "index": 2
        },
        "metallicFactor": 0.6036481094432833,
        "metallicRoughnessTexture": {
          "index": 3
        },
        "roughnessFactor": 0.20235607068212047
      }
    }
  ],
  "meshes": [
    {
      "name": "Object_0",
      "primitives": [
        {
          "attributes": {
            "NORMAL": 1,
            "POSITION": 0,
            "TEXCOORD_0": 2
          },
          "indices": 3,
          "material": 1,
          "mode": 4
        }
      ]
    },
    {
      "name": "Object_1",
      "primitives": [
        {
          "attributes": {
            "NORMAL": 5,
            "POSITION": 4,
            "TEXCOORD_0": 6
          },
          "indices": 7,
          "material": 0,
          "mode": 4
        }
      ]
    },
    {
      "name": "Object_2",
      "primitives": [
        {
          "attributes": {
            "NORMAL": 9,
            "POSITION": 8,
            "TEXCOORD_0": 10
          },
          "indices": 11,
          "material": 0,
          "mode": 4
        }
      ]
    }
  ],
  "nodes": [
    {
      "children": [
        1
      ],
      "matrix": [
        1.0,
        0.0,
        0.0,
        0.0,
        0.0,
        2.220446049250313e-16,
        -1.0,
        0.0,
        0.0,
        1.0,
        2.220446049250313e-16,
        0.0,
        0.0,
        0.0,
        0.0,
        1.0
      ],
      "name": "Sketchfab_model"
    },
    {
      "children": [
        2,
        3,
        4
      ],
      "name": "Teamgeist.obj.cleaner.materialmerger.gles"
    },
    {
      "mesh": 0,
      "name": "Object_2"
    },
    {
      "mesh": 1,
      "name": "Object_3"
    },
    {
      "mesh": 2,
      "name": "Object_4"
    }
  ],
  "samplers": [
    {
      "magFilter": 9729,
      "minFilter": 9987,
      "wrapS": 10497,
      "wrapT": 10497
    }
  ],
  "scene": 0,
  "scenes": [
    {
      "name": "Sketchfab_Scene",
      "nodes": [
        0
      ]
    }
  ],
  "textures": [
    {
      "sampler": 0,
      "source": 0
    },
    {
      "sampler": 0,
      "source": 1
    },
    {
      "sampler": 0,
      "source": 2
    },
    {
      "sampler": 0,
      "source": 3
    }
  ]
}
